<svg xmlns="http://www.w3.org/2000/svg" width="1536" height="1024" viewBox="0 0 1536 1024" role="img" aria-labelledby="title desc">
  <title id="title">ターミナルのパイプ、リダイレクト、PATH の考え方</title>
  <desc id="desc">ターミナル出力がパイプで流れ、リダイレクトでログに残り、PATH がコマンドを探す流れを示すコース用プレースホルダー図。</desc>
  <defs>
    <style>
      .bg { fill: #f7faf8; }
      .panel { fill: #ffffff; stroke: #23302a; stroke-width: 3; rx: 22; }
      .soft { fill: #e8f3ee; stroke: #3b6655; stroke-width: 3; rx: 18; }
      .accent { fill: #f4c95d; stroke: #6b5515; stroke-width: 3; rx: 18; }
      .warn { fill: #f7d8c8; stroke: #7f4631; stroke-width: 3; rx: 18; }
      .text { font-family: Arial, Helvetica, sans-serif; fill: #1f2924; }
      .title { font-size: 48px; font-weight: 700; }
      .h2 { font-size: 32px; font-weight: 700; }
      .body { font-size: 26px; }
      .mono { font-family: "SFMono-Regular", Consolas, "Liberation Mono", monospace; font-size: 25px; fill: #14352a; }
      .small { font-size: 21px; fill: #4d5d55; }
      .arrow { stroke: #1f5e4a; stroke-width: 7; fill: none; marker-end: url(#arrow); stroke-linecap: round; }
    </style>
    <marker id="arrow" markerWidth="14" markerHeight="14" refX="10" refY="7" orient="auto" markerUnits="strokeWidth">
      <path d="M 0 0 L 14 7 L 0 14 z" fill="#1f5e4a"/>
    </marker>
  </defs>

  <rect class="bg" width="1536" height="1024"/>

  <text class="text title" x="92" y="92">ターミナルのデータ流：パイプ、リダイレクト、PATH</text>
  <text class="text body" x="92" y="137">コマンドを経路として読む：出力は前へ流れ、ファイルは証拠を残し、PATH はツールを探す。</text>

  <rect class="panel" x="84" y="190" width="1368" height="270" rx="22"/>
  <text class="text h2" x="122" y="246">1. パイプ：出力が次の入力になる</text>
  <rect class="soft" x="122" y="292" width="280" height="84" rx="18"/>
  <text class="text mono" x="153" y="345">ls -la</text>
  <path class="arrow" d="M 420 334 H 545"/>
  <rect class="soft" x="566" y="292" width="300" height="84" rx="18"/>
  <text class="text mono" x="593" y="345">grep ".py"</text>
  <path class="arrow" d="M 884 334 H 1010"/>
  <rect class="soft" x="1032" y="292" width="330" height="84" rx="18"/>
  <text class="text mono" x="1064" y="345">wc -l</text>
  <text class="text small" x="122" y="418">流れ作業のように、各コマンドがテキストを受け取り、処理して次へ渡します。</text>

  <rect class="panel" x="84" y="512" width="636" height="330" rx="22"/>
  <text class="text h2" x="122" y="568">2. リダイレクト：証拠を保存する</text>
  <rect class="accent" x="122" y="620" width="250" height="78" rx="18"/>
  <text class="text mono" x="151" y="670">python train.py</text>
  <path class="arrow" d="M 390 659 H 491"/>
  <rect class="warn" x="510" y="620" width="160" height="78" rx="18"/>
  <text class="text mono" x="555" y="670">&gt;</text>
  <rect class="soft" x="285" y="738" width="300" height="66" rx="18"/>
  <text class="text mono" x="321" y="781">training_log.txt</text>
  <path class="arrow" d="M 589 698 C 589 722 540 735 474 745"/>
  <text class="text small" x="122" y="880">&gt; は上書き、&gt;&gt; は末尾へ追記します。</text>

  <rect class="panel" x="774" y="512" width="678" height="330" rx="22"/>
  <text class="text h2" x="812" y="568">3. PATH：コマンドファイルを探す</text>
  <rect class="accent" x="812" y="620" width="190" height="78" rx="18"/>
  <text class="text mono" x="856" y="670">python</text>
  <path class="arrow" d="M 1020 659 H 1116"/>
  <rect class="soft" x="1136" y="588" width="250" height="142" rx="18"/>
  <text class="text mono" x="1172" y="638">/usr/bin</text>
  <text class="text mono" x="1172" y="677">/bin</text>
  <text class="text mono" x="1172" y="716">~/miniconda3/bin</text>
  <text class="text small" x="812" y="790">シェルは PATH のフォルダを順に調べ、最初に見つけた実行ファイルを使います。</text>
  <text class="text small" x="812" y="830">見つからなければ command not found が表示されます。</text>

  <rect class="soft" x="260" y="910" width="1016" height="64" rx="18"/>
  <text class="text body" x="302" y="951">デバッグ習慣：pwd、ls、which python を実行し、有用な出力をログに残す。</text>
</svg>
