<svg xmlns="http://www.w3.org/2000/svg" width="1536" height="1024" viewBox="0 0 1536 1024" role="img" aria-labelledby="title desc">
  <title id="title">PyTorch 训练调试检查顺序</title>
  <desc id="desc">一张课程占位教学图，展示当 PyTorch 训练没有学起来时，新人应按什么顺序检查训练循环。</desc>
  <defs>
    <style>
      .bg { fill: #f7f9fc; }
      .panel { fill: #ffffff; stroke: #26303f; stroke-width: 3; }
      .blue { fill: #e5eef9; stroke: #315d95; stroke-width: 3; }
      .green { fill: #e7f4ec; stroke: #327a55; stroke-width: 3; }
      .gold { fill: #fff1c9; stroke: #8b6b17; stroke-width: 3; }
      .red { fill: #f8ded8; stroke: #914535; stroke-width: 3; }
      .ink { fill: #202736; font-family: Arial, "Noto Sans CJK SC", "Microsoft YaHei", sans-serif; }
      .title { font-size: 48px; font-weight: 700; }
      .body { font-size: 25px; }
      .h2 { font-size: 30px; font-weight: 700; }
      .small { font-size: 21px; fill: #526071; font-family: Arial, "Noto Sans CJK SC", "Microsoft YaHei", sans-serif; }
      .mono { font-family: "SFMono-Regular", Consolas, "Liberation Mono", monospace; font-size: 23px; fill: #182536; }
      .arrow { stroke: #2b5e91; stroke-width: 7; fill: none; marker-end: url(#arrow); stroke-linecap: round; }
      .thin { stroke: #7b8798; stroke-width: 4; fill: none; stroke-linecap: round; }
    </style>
    <marker id="arrow" markerWidth="14" markerHeight="14" refX="10" refY="7" orient="auto" markerUnits="strokeWidth">
      <path d="M 0 0 L 14 7 L 0 14 z" fill="#2b5e91"/>
    </marker>
  </defs>

  <rect class="bg" width="1536" height="1024"/>
  <text class="ink title" x="88" y="92">训练没有变好时：按这个顺序检查</text>
  <text class="ink body" x="88" y="137">大多数 PyTorch 问题先别急着改模型，先从数据到参数更新一路核对。</text>

  <rect class="panel" x="84" y="190" width="392" height="220" rx="22"/>
  <text class="ink h2" x="122" y="246">1. 批次是否正常</text>
  <text class="ink body" x="122" y="294">数据读到了吗？</text>
  <text class="ink body" x="122" y="334">shape 对得上吗？</text>
  <text class="ink body" x="122" y="374">device / dtype 对吗？</text>

  <path class="arrow" d="M 500 300 H 612"/>

  <rect class="panel" x="636" y="190" width="392" height="220" rx="22"/>
  <text class="ink h2" x="674" y="246">2. 标签和损失</text>
  <text class="ink body" x="674" y="294">标签对齐了吗？</text>
  <text class="ink body" x="674" y="334">loss 适合任务吗？</text>
  <text class="ink body" x="674" y="374">有没有 NaN？</text>

  <path class="arrow" d="M 1052 300 H 1164"/>

  <rect class="panel" x="1188" y="190" width="264" height="220" rx="22"/>
  <text class="ink h2" x="1226" y="246">3. 模式切换</text>
  <text class="mono" x="1226" y="302">train()</text>
  <text class="mono" x="1226" y="342">eval()</text>
  <text class="mono" x="1226" y="382">no_grad()</text>

  <path class="arrow" d="M 1320 432 V 526"/>

  <rect class="panel" x="990" y="550" width="462" height="260" rx="22"/>
  <text class="ink h2" x="1028" y="606">4. 更新顺序</text>
  <rect class="blue" x="1028" y="642" width="178" height="58" rx="16"/>
  <text class="mono" x="1054" y="680">zero_grad</text>
  <path class="thin" d="M 1218 672 H 1260"/>
  <rect class="green" x="1276" y="642" width="138" height="58" rx="16"/>
  <text class="mono" x="1298" y="680">backward</text>
  <rect class="gold" x="1028" y="724" width="178" height="58" rx="16"/>
  <text class="mono" x="1074" y="762">clip</text>
  <path class="thin" d="M 1218 754 H 1260"/>
  <rect class="red" x="1276" y="724" width="138" height="58" rx="16"/>
  <text class="mono" x="1308" y="762">step</text>

  <path class="arrow" d="M 966 680 H 852"/>

  <rect class="panel" x="512" y="550" width="416" height="260" rx="22"/>
  <text class="ink h2" x="550" y="606">5. 学习率</text>
  <text class="ink body" x="550" y="660">太大：loss 跳动或 NaN</text>
  <text class="ink body" x="550" y="704">太小：loss 几乎不动</text>
  <text class="small" x="550" y="764">先做小实验，再考虑重设计。</text>

  <path class="arrow" d="M 488 680 H 374"/>

  <rect class="panel" x="84" y="550" width="390" height="260" rx="22"/>
  <text class="ink h2" x="122" y="606">6. 小批次过拟合</text>
  <text class="ink body" x="122" y="660">一个很小的 batch 能不能</text>
  <text class="ink body" x="122" y="704">把 loss 压到很低？</text>
  <text class="small" x="122" y="764">如果不能，优先查训练循环。</text>

  <rect class="green" x="230" y="890" width="1076" height="68" rx="20"/>
  <text class="ink body" x="270" y="933">从可观察事实排查：batch -> label -> loss -> gradient -> update -> curve。</text>
</svg>
