<svg xmlns="http://www.w3.org/2000/svg" width="1536" height="1024" viewBox="0 0 1536 1024" role="img" aria-labelledby="title desc">
  <title id="title">PyTorch 学習デバッグの確認順序</title>
  <desc id="desc">PyTorch の学習が進まないとき、初心者がどの順序で訓練ループを確認すべきかを示す教材用プレースホルダー図。</desc>
  <defs>
    <style>
      .bg { fill: #f7f9fc; }
      .panel { fill: #ffffff; stroke: #26303f; stroke-width: 3; }
      .blue { fill: #e5eef9; stroke: #315d95; stroke-width: 3; }
      .green { fill: #e7f4ec; stroke: #327a55; stroke-width: 3; }
      .gold { fill: #fff1c9; stroke: #8b6b17; stroke-width: 3; }
      .red { fill: #f8ded8; stroke: #914535; stroke-width: 3; }
      .ink { fill: #202736; font-family: Arial, "Noto Sans CJK JP", "Hiragino Sans", sans-serif; }
      .title { font-size: 48px; font-weight: 700; }
      .body { font-size: 25px; }
      .h2 { font-size: 30px; font-weight: 700; }
      .small { font-size: 21px; fill: #526071; font-family: Arial, "Noto Sans CJK JP", "Hiragino Sans", sans-serif; }
      .mono { font-family: "SFMono-Regular", Consolas, "Liberation Mono", monospace; font-size: 23px; fill: #182536; }
      .arrow { stroke: #2b5e91; stroke-width: 7; fill: none; marker-end: url(#arrow); stroke-linecap: round; }
      .thin { stroke: #7b8798; stroke-width: 4; fill: none; stroke-linecap: round; }
    </style>
    <marker id="arrow" markerWidth="14" markerHeight="14" refX="10" refY="7" orient="auto" markerUnits="strokeWidth">
      <path d="M 0 0 L 14 7 L 0 14 z" fill="#2b5e91"/>
    </marker>
  </defs>

  <rect class="bg" width="1536" height="1024"/>
  <text class="ink title" x="88" y="92">学習が改善しないとき：この順序で確認</text>
  <text class="ink body" x="88" y="137">モデルを変える前に、データからパラメータ更新までの流れを確認します。</text>

  <rect class="panel" x="84" y="190" width="392" height="220" rx="22"/>
  <text class="ink h2" x="122" y="246">1. バッチ確認</text>
  <text class="ink body" x="122" y="294">データは読めている？</text>
  <text class="ink body" x="122" y="334">shape は合う？</text>
  <text class="ink body" x="122" y="374">device / dtype は正しい？</text>

  <path class="arrow" d="M 500 300 H 612"/>

  <rect class="panel" x="636" y="190" width="392" height="220" rx="22"/>
  <text class="ink h2" x="674" y="246">2. ラベルと損失</text>
  <text class="ink body" x="674" y="294">ラベルは対応している？</text>
  <text class="ink body" x="674" y="334">loss はタスクに合う？</text>
  <text class="ink body" x="674" y="374">NaN はない？</text>

  <path class="arrow" d="M 1052 300 H 1164"/>

  <rect class="panel" x="1188" y="190" width="264" height="220" rx="22"/>
  <text class="ink h2" x="1226" y="246">3. モード</text>
  <text class="mono" x="1226" y="302">train()</text>
  <text class="mono" x="1226" y="342">eval()</text>
  <text class="mono" x="1226" y="382">no_grad()</text>

  <path class="arrow" d="M 1320 432 V 526"/>

  <rect class="panel" x="990" y="550" width="462" height="260" rx="22"/>
  <text class="ink h2" x="1028" y="606">4. 更新順序</text>
  <rect class="blue" x="1028" y="642" width="178" height="58" rx="16"/>
  <text class="mono" x="1054" y="680">zero_grad</text>
  <path class="thin" d="M 1218 672 H 1260"/>
  <rect class="green" x="1276" y="642" width="138" height="58" rx="16"/>
  <text class="mono" x="1298" y="680">backward</text>
  <rect class="gold" x="1028" y="724" width="178" height="58" rx="16"/>
  <text class="mono" x="1074" y="762">clip</text>
  <path class="thin" d="M 1218 754 H 1260"/>
  <rect class="red" x="1276" y="724" width="138" height="58" rx="16"/>
  <text class="mono" x="1308" y="762">step</text>

  <path class="arrow" d="M 966 680 H 852"/>

  <rect class="panel" x="512" y="550" width="416" height="260" rx="22"/>
  <text class="ink h2" x="550" y="606">5. 学習率</text>
  <text class="ink body" x="550" y="660">大きすぎる：loss が暴れる</text>
  <text class="ink body" x="550" y="704">小さすぎる：loss が動かない</text>
  <text class="small" x="550" y="764">再設計の前に小さく試します。</text>

  <path class="arrow" d="M 488 680 H 374"/>

  <rect class="panel" x="84" y="550" width="390" height="260" rx="22"/>
  <text class="ink h2" x="122" y="606">6. 小バッチ過学習</text>
  <text class="ink body" x="122" y="660">小さな batch で loss を</text>
  <text class="ink body" x="122" y="704">十分下げられる？</text>
  <text class="small" x="122" y="764">無理なら訓練ループを優先確認。</text>

  <rect class="green" x="230" y="890" width="1076" height="68" rx="20"/>
  <text class="ink body" x="270" y="933">観察できる事実から確認：batch -> label -> loss -> gradient -> update -> curve。</text>
</svg>
