<svg xmlns="http://www.w3.org/2000/svg" width="720" height="900" viewBox="0 0 720 900" role="img" aria-labelledby="title desc">
  <title id="title">Prompt 实验循环</title>
  <desc id="desc">Prompt 工程竖向循环图：固定样本、只改一个变量、运行、校验、记录失败并重复。</desc>
  <defs>
    <marker id="arrow" markerWidth="12" markerHeight="12" refX="10" refY="6" orient="auto">
      <path d="M2 2 L10 6 L2 10 Z" fill="#334155"/>
    </marker>
    <style>
      .title{font:700 30px Arial,sans-serif;fill:#0f172a}
      .sub{font:400 17px Arial,sans-serif;fill:#475569}
      .step{font:700 20px Arial,sans-serif;fill:#111827}
      .text{font:400 16px Arial,sans-serif;fill:#374151}
      .tag{font:700 15px Arial,sans-serif;fill:#b45309}
    </style>
  </defs>
  <rect width="720" height="900" fill="#fff7ed"/>
  <text x="360" y="58" text-anchor="middle" class="title">Prompt 工作 = 小实验</text>
  <text x="360" y="88" text-anchor="middle" class="sub">固定样本，只改一个变量，每次都校验。</text>

  <g transform="translate(110 135)">
    <rect width="500" height="90" rx="18" fill="#e0f2fe" stroke="#0284c7" stroke-width="2"/>
    <text x="26" y="34" class="step">1. 固定输入样本</text>
    <text x="26" y="63" class="text">同一组问题、边界样本和期望要点。</text>
  </g>
  <path d="M360 228 V278" stroke="#334155" stroke-width="3" marker-end="url(#arrow)"/>

  <g transform="translate(110 290)">
    <rect width="500" height="90" rx="18" fill="#dcfce7" stroke="#16a34a" stroke-width="2"/>
    <text x="26" y="34" class="step">2. 一个 Prompt 版本</text>
    <text x="26" y="63" class="text">只改角色、示例、格式或评分标准中的一个。</text>
  </g>
  <path d="M360 383 V433" stroke="#334155" stroke-width="3" marker-end="url(#arrow)"/>

  <g transform="translate(110 445)">
    <rect width="500" height="90" rx="18" fill="#ede9fe" stroke="#7c3aed" stroke-width="2"/>
    <text x="26" y="34" class="step">3. 运行模型</text>
    <text x="26" y="63" class="text">先用离线玩具模型，之后再换真实 LLM SDK。</text>
  </g>
  <path d="M360 538 V588" stroke="#334155" stroke-width="3" marker-end="url(#arrow)"/>

  <g transform="translate(110 600)">
    <rect width="500" height="90" rx="18" fill="#fef3c7" stroke="#d97706" stroke-width="2"/>
    <text x="26" y="34" class="step">4. 校验输出</text>
    <text x="26" y="63" class="text">解析 JSON、检查字段、按期望要点评分。</text>
  </g>
  <path d="M360 693 V743" stroke="#334155" stroke-width="3" marker-end="url(#arrow)"/>

  <g transform="translate(110 755)">
    <rect width="500" height="90" rx="18" fill="#fee2e2" stroke="#dc2626" stroke-width="2"/>
    <text x="26" y="34" class="step">5. 记录失败</text>
    <text x="26" y="63" class="text">保存错误输出、可能原因和下一次改动。</text>
  </g>

  <path d="M610 800 C675 730 675 215 610 178" fill="none" stroke="#334155" stroke-width="3" marker-end="url(#arrow)"/>
  <text x="642" y="500" class="tag" transform="rotate(90 642 500)">只改一个变量再重复</text>
</svg>
