<svg xmlns="http://www.w3.org/2000/svg" width="720" height="920" viewBox="0 0 720 920" role="img" aria-labelledby="title desc">
  <title id="title">LLM 手法選択図</title>
  <desc id="desc">LLM の出力が弱いとき、Prompt、schema 検証、RAG、微調整、ツールをどう選ぶかを示す判断図。</desc>
  <defs>
    <marker id="arrow" markerWidth="12" markerHeight="12" refX="10" refY="6" orient="auto">
      <path d="M2 2 L10 6 L2 10 Z" fill="#334155"/>
    </marker>
    <style>
      .title{font:700 30px Arial,sans-serif;fill:#0f172a}
      .sub{font:400 17px Arial,sans-serif;fill:#475569}
      .q{font:700 21px Arial,sans-serif;fill:#111827}
      .small{font:400 15px Arial,sans-serif;fill:#374151}
      .label{font:700 18px Arial,sans-serif;fill:#111827}
    </style>
  </defs>
  <rect width="720" height="920" fill="#f8fafc"/>
  <text x="360" y="58" text-anchor="middle" class="title">LLM の結果が弱いとき</text>
  <text x="360" y="88" text-anchor="middle" class="sub">失敗の種類に合う最小の修正を選びます。</text>

  <g transform="translate(120 128)">
    <rect width="480" height="74" rx="18" fill="#fee2e2" stroke="#dc2626" stroke-width="2"/>
    <text x="240" y="45" text-anchor="middle" class="q">どこで失敗している？</text>
  </g>
  <path d="M360 204 V244" stroke="#334155" stroke-width="3" marker-end="url(#arrow)"/>

  <g transform="translate(80 256)">
    <rect width="560" height="88" rx="18" fill="#dbeafe" stroke="#2563eb" stroke-width="2"/>
    <text x="26" y="34" class="label">タスクや文体が曖昧</text>
    <text x="26" y="62" class="small">まず Prompt：役割、例、制約、評価基準を明確にする。</text>
  </g>
  <path d="M360 346 V386" stroke="#334155" stroke-width="3" marker-end="url(#arrow)"/>

  <g transform="translate(80 398)">
    <rect width="560" height="88" rx="18" fill="#dcfce7" stroke="#16a34a" stroke-width="2"/>
    <text x="26" y="34" class="label">機械で読める出力が必要</text>
    <text x="26" y="62" class="small">schema、パーサ検証、再試行、回帰ケースを入れる。</text>
  </g>
  <path d="M360 488 V528" stroke="#334155" stroke-width="3" marker-end="url(#arrow)"/>

  <g transform="translate(80 540)">
    <rect width="560" height="88" rx="18" fill="#fef3c7" stroke="#d97706" stroke-width="2"/>
    <text x="26" y="34" class="label">私有情報や新情報が足りない</text>
    <text x="26" y="62" class="small">RAG：信頼できる文書を検索してから回答させる。</text>
  </g>
  <path d="M360 630 V670" stroke="#334155" stroke-width="3" marker-end="url(#arrow)"/>

  <g transform="translate(80 682)">
    <rect width="560" height="88" rx="18" fill="#ede9fe" stroke="#7c3aed" stroke-width="2"/>
    <text x="26" y="34" class="label">分野の振る舞いを長期適応したい</text>
    <text x="26" y="62" class="small">良いデータ、評価ケース、リスク確認があれば微調整を検討。</text>
  </g>
  <path d="M360 772 V812" stroke="#334155" stroke-width="3" marker-end="url(#arrow)"/>

  <g transform="translate(80 824)">
    <rect width="560" height="68" rx="18" fill="#fce7f3" stroke="#db2777" stroke-width="2"/>
    <text x="26" y="32" class="label">外部操作が必要</text>
    <text x="26" y="56" class="small">ツールや Agent で API、ファイル検索、手順実行を行う。</text>
  </g>
</svg>
