<svg xmlns="http://www.w3.org/2000/svg" width="720" height="980" viewBox="0 0 720 980" role="img" aria-labelledby="title desc">
  <title id="title">Token から回答までの流れ</title>
  <desc id="desc">ユーザー文が token、embedding、Transformer の文脈、次 token 予測、検証済み出力へ進む様子を示す縦型の教学図。</desc>
  <defs>
    <marker id="arrow" markerWidth="12" markerHeight="12" refX="10" refY="6" orient="auto">
      <path d="M2 2 L10 6 L2 10 Z" fill="#334155"/>
    </marker>
    <style>
      .title{font:700 30px Arial,sans-serif;fill:#0f172a}
      .sub{font:400 17px Arial,sans-serif;fill:#475569}
      .box-title{font:700 20px Arial,sans-serif;fill:#111827}
      .box-text{font:400 16px Arial,sans-serif;fill:#374151}
      .hint{font:700 15px Arial,sans-serif;fill:#0f766e}
    </style>
  </defs>
  <rect width="720" height="980" fill="#f8fafc"/>
  <text x="360" y="58" text-anchor="middle" class="title">文章から回答まで</text>
  <text x="360" y="88" text-anchor="middle" class="sub">先に流れを見て、各チェックポイントを直します。</text>

  <g transform="translate(90 130)">
    <rect width="540" height="92" rx="18" fill="#dbeafe" stroke="#2563eb" stroke-width="2"/>
    <text x="28" y="35" class="box-title">1. ユーザー文</text>
    <text x="28" y="64" class="box-text">タスク、例、文脈、出力条件が一緒に入ります。</text>
  </g>
  <path d="M360 224 V270" stroke="#334155" stroke-width="3" marker-end="url(#arrow)"/>

  <g transform="translate(90 282)">
    <rect width="540" height="92" rx="18" fill="#dcfce7" stroke="#16a34a" stroke-width="2"/>
    <text x="28" y="35" class="box-title">2. Tokenizer</text>
    <text x="28" y="64" class="box-text">文章を token に分けます。数はコストと文脈長に効きます。</text>
  </g>
  <path d="M360 376 V422" stroke="#334155" stroke-width="3" marker-end="url(#arrow)"/>

  <g transform="translate(90 434)">
    <rect width="540" height="92" rx="18" fill="#fef3c7" stroke="#d97706" stroke-width="2"/>
    <text x="28" y="35" class="box-title">3. Embedding ベクトル</text>
    <text x="28" y="64" class="box-text">token が数値になり、意味を比較できるようになります。</text>
  </g>
  <path d="M360 528 V574" stroke="#334155" stroke-width="3" marker-end="url(#arrow)"/>

  <g transform="translate(90 586)">
    <rect width="540" height="108" rx="18" fill="#fce7f3" stroke="#db2777" stroke-width="2"/>
    <text x="28" y="35" class="box-title">4. Transformer の文脈</text>
    <text x="28" y="64" class="box-text">Attention が前の語、例、ルールを混ぜます。</text>
    <text x="28" y="90" class="hint">確認点：文脈の矛盾、指示の曖昧さ。</text>
  </g>
  <path d="M360 696 V742" stroke="#334155" stroke-width="3" marker-end="url(#arrow)"/>

  <g transform="translate(90 754)">
    <rect width="540" height="92" rx="18" fill="#ede9fe" stroke="#7c3aed" stroke-width="2"/>
    <text x="28" y="35" class="box-title">5. 次 token 予測</text>
    <text x="28" y="64" class="box-text">モデルは次に来そうな token を繰り返し選びます。</text>
  </g>
  <path d="M360 848 V894" stroke="#334155" stroke-width="3" marker-end="url(#arrow)"/>

  <g transform="translate(90 906)">
    <rect width="540" height="56" rx="18" fill="#fee2e2" stroke="#dc2626" stroke-width="2"/>
    <text x="28" y="36" class="box-title">6. 回答と検証：解析、採点、失敗例の保存</text>
  </g>
</svg>
