<svg xmlns="http://www.w3.org/2000/svg" width="720" height="980" viewBox="0 0 720 980" role="img" aria-labelledby="title desc">
  <title id="title">Token 到答案的完整流程</title>
  <desc id="desc">竖向教学图，展示用户文本如何变成 token、embedding、Transformer 上下文、下一个 token 预测和可校验输出。</desc>
  <defs>
    <marker id="arrow" markerWidth="12" markerHeight="12" refX="10" refY="6" orient="auto">
      <path d="M2 2 L10 6 L2 10 Z" fill="#334155"/>
    </marker>
    <style>
      .title{font:700 30px Arial,sans-serif;fill:#0f172a}
      .sub{font:400 17px Arial,sans-serif;fill:#475569}
      .box-title{font:700 20px Arial,sans-serif;fill:#111827}
      .box-text{font:400 16px Arial,sans-serif;fill:#374151}
      .hint{font:700 15px Arial,sans-serif;fill:#0f766e}
    </style>
  </defs>
  <rect width="720" height="980" fill="#f8fafc"/>
  <text x="360" y="58" text-anchor="middle" class="title">从文本到答案</text>
  <text x="360" y="88" text-anchor="middle" class="sub">先看路径，再逐个检查卡点。</text>

  <g transform="translate(90 130)">
    <rect width="540" height="92" rx="18" fill="#dbeafe" stroke="#2563eb" stroke-width="2"/>
    <text x="28" y="35" class="box-title">1. 用户文本</text>
    <text x="28" y="64" class="box-text">任务、示例、上下文、输出要求一起进入模型。</text>
  </g>
  <path d="M360 224 V270" stroke="#334155" stroke-width="3" marker-end="url(#arrow)"/>

  <g transform="translate(90 282)">
    <rect width="540" height="92" rx="18" fill="#dcfce7" stroke="#16a34a" stroke-width="2"/>
    <text x="28" y="35" class="box-title">2. Tokenizer</text>
    <text x="28" y="64" class="box-text">把文本切成 token；数量会影响成本和上下文。</text>
  </g>
  <path d="M360 376 V422" stroke="#334155" stroke-width="3" marker-end="url(#arrow)"/>

  <g transform="translate(90 434)">
    <rect width="540" height="92" rx="18" fill="#fef3c7" stroke="#d97706" stroke-width="2"/>
    <text x="28" y="35" class="box-title">3. Embedding 向量</text>
    <text x="28" y="64" class="box-text">token 变成数字，模型才能比较含义。</text>
  </g>
  <path d="M360 528 V574" stroke="#334155" stroke-width="3" marker-end="url(#arrow)"/>

  <g transform="translate(90 586)">
    <rect width="540" height="108" rx="18" fill="#fce7f3" stroke="#db2777" stroke-width="2"/>
    <text x="28" y="35" class="box-title">4. Transformer 上下文</text>
    <text x="28" y="64" class="box-text">Attention 混合前文、示例和规则。</text>
    <text x="28" y="90" class="hint">重点排查：上下文冲突或任务说明不清。</text>
  </g>
  <path d="M360 696 V742" stroke="#334155" stroke-width="3" marker-end="url(#arrow)"/>

  <g transform="translate(90 754)">
    <rect width="540" height="92" rx="18" fill="#ede9fe" stroke="#7c3aed" stroke-width="2"/>
    <text x="28" y="35" class="box-title">5. 预测下一个 token</text>
    <text x="28" y="64" class="box-text">模型反复选择可能的下一个 token，直到停止。</text>
  </g>
  <path d="M360 848 V894" stroke="#334155" stroke-width="3" marker-end="url(#arrow)"/>

  <g transform="translate(90 906)">
    <rect width="540" height="56" rx="18" fill="#fee2e2" stroke="#dc2626" stroke-width="2"/>
    <text x="28" y="36" class="box-title">6. 答案与校验：解析、评分、保存失败样本</text>
  </g>
</svg>
