<svg xmlns="http://www.w3.org/2000/svg" width="720" height="860" viewBox="0 0 720 860" role="img" aria-labelledby="title desc">
  <title id="title">RAG ポートフォリオ証拠パック</title>
  <desc id="desc">RAG ポートフォリオをレビュー可能にする重要ファイルを示すチェックリスト型の図。</desc>
  <style>
    .title{font:700 30px Arial,sans-serif;fill:#0f172a}
    .sub{font:400 17px Arial,sans-serif;fill:#475569}
    .file{font:700 18px Arial,sans-serif;fill:#111827}
    .text{font:400 15px Arial,sans-serif;fill:#374151}
  </style>
  <rect width="720" height="860" fill="#f0fdfa"/>
  <text x="360" y="58" text-anchor="middle" class="title">RAG 証拠パック</text>
  <text x="360" y="88" text-anchor="middle" class="sub">Demo が信頼できるのは、これらを確認できるからです。</text>
  <g transform="translate(85 130)">
    <rect width="550" height="88" rx="18" fill="#ffffff" stroke="#0f766e" stroke-width="2"/>
    <text x="28" y="35" class="file">chunks.jsonl</text>
    <text x="28" y="63" class="text">chunk 本文、出典、章、ページ、版。</text>
  </g>
  <g transform="translate(85 240)">
    <rect width="550" height="88" rx="18" fill="#ffffff" stroke="#2563eb" stroke-width="2"/>
    <text x="28" y="35" class="file">retrieval_logs.jsonl</text>
    <text x="28" y="63" class="text">質問、top-k チャンク、スコア、source ID。</text>
  </g>
  <g transform="translate(85 350)">
    <rect width="550" height="88" rx="18" fill="#ffffff" stroke="#d97706" stroke-width="2"/>
    <text x="28" y="35" class="file">eval_questions.csv</text>
    <text x="28" y="63" class="text">固定質問、期待出典、回答ポイント。</text>
  </g>
  <g transform="translate(85 460)">
    <rect width="550" height="88" rx="18" fill="#ffffff" stroke="#dc2626" stroke-width="2"/>
    <text x="28" y="35" class="file">failure_cases.md</text>
    <text x="28" y="63" class="text">検索、生成、引用、配置の失敗例。</text>
  </g>
  <g transform="translate(85 570)">
    <rect width="550" height="88" rx="18" fill="#ffffff" stroke="#7c3aed" stroke-width="2"/>
    <text x="28" y="35" class="file">rag_config.md</text>
    <text x="28" y="63" class="text">chunk サイズ、overlap、top-k、rerank、Prompt 版。</text>
  </g>
  <g transform="translate(85 680)">
    <rect width="550" height="88" rx="18" fill="#ffffff" stroke="#db2777" stroke-width="2"/>
    <text x="28" y="35" class="file">README.md</text>
    <text x="28" y="63" class="text">実行コマンド、回答例、評価結果、次の修正。</text>
  </g>
</svg>
