<svg xmlns="http://www.w3.org/2000/svg" width="720" height="980" viewBox="0 0 720 980" role="img" aria-labelledby="title desc">
  <title id="title">RAG application loop</title>
  <desc id="desc">A vertical RAG application loop from documents to chunks, index, retrieval, prompt, cited answer, and evaluation logs.</desc>
  <defs>
    <marker id="arrow" markerWidth="12" markerHeight="12" refX="10" refY="6" orient="auto">
      <path d="M2 2 L10 6 L2 10 Z" fill="#334155"/>
    </marker>
    <style>
      .title{font:700 30px Arial,sans-serif;fill:#0f172a}
      .sub{font:400 17px Arial,sans-serif;fill:#475569}
      .step{font:700 19px Arial,sans-serif;fill:#111827}
      .text{font:400 15px Arial,sans-serif;fill:#374151}
    </style>
  </defs>
  <rect width="720" height="980" fill="#f8fafc"/>
  <text x="360" y="58" text-anchor="middle" class="title">RAG: Read Before Answering</text>
  <text x="360" y="88" text-anchor="middle" class="sub">Every answer should trace back to retrieved evidence.</text>

  <g transform="translate(90 130)">
    <rect width="540" height="74" rx="18" fill="#dbeafe" stroke="#2563eb" stroke-width="2"/>
    <text x="28" y="31" class="step">1. Documents</text>
    <text x="28" y="56" class="text">Markdown, PDFs, manuals, notes, support logs.</text>
  </g>
  <path d="M360 206 V246" stroke="#334155" stroke-width="3" marker-end="url(#arrow)"/>
  <g transform="translate(90 258)">
    <rect width="540" height="74" rx="18" fill="#dcfce7" stroke="#16a34a" stroke-width="2"/>
    <text x="28" y="31" class="step">2. Chunks + metadata</text>
    <text x="28" y="56" class="text">Split text and keep source, page, section, version.</text>
  </g>
  <path d="M360 334 V374" stroke="#334155" stroke-width="3" marker-end="url(#arrow)"/>
  <g transform="translate(90 386)">
    <rect width="540" height="74" rx="18" fill="#fef3c7" stroke="#d97706" stroke-width="2"/>
    <text x="28" y="31" class="step">3. Index</text>
    <text x="28" y="56" class="text">Keyword, vector, hybrid search, or graph index.</text>
  </g>
  <path d="M360 462 V502" stroke="#334155" stroke-width="3" marker-end="url(#arrow)"/>
  <g transform="translate(90 514)">
    <rect width="540" height="74" rx="18" fill="#ede9fe" stroke="#7c3aed" stroke-width="2"/>
    <text x="28" y="31" class="step">4. Retrieve top-k evidence</text>
    <text x="28" y="56" class="text">Print query, scores, source IDs, and matched text.</text>
  </g>
  <path d="M360 590 V630" stroke="#334155" stroke-width="3" marker-end="url(#arrow)"/>
  <g transform="translate(90 642)">
    <rect width="540" height="74" rx="18" fill="#fce7f3" stroke="#db2777" stroke-width="2"/>
    <text x="28" y="31" class="step">5. Prompt + LLM answer</text>
    <text x="28" y="56" class="text">Answer only from context; say no answer when evidence is empty.</text>
  </g>
  <path d="M360 718 V758" stroke="#334155" stroke-width="3" marker-end="url(#arrow)"/>
  <g transform="translate(90 770)">
    <rect width="540" height="74" rx="18" fill="#ccfbf1" stroke="#0f766e" stroke-width="2"/>
    <text x="28" y="31" class="step">6. Citations + response</text>
    <text x="28" y="56" class="text">Show sources so users can inspect the answer.</text>
  </g>
  <path d="M360 846 V886" stroke="#334155" stroke-width="3" marker-end="url(#arrow)"/>
  <g transform="translate(90 898)">
    <rect width="540" height="58" rx="18" fill="#fee2e2" stroke="#dc2626" stroke-width="2"/>
    <text x="28" y="36" class="step">7. Evaluation logs: fixed questions, failures, cost, latency</text>
  </g>
</svg>
